<svg xmlns="http://www.w3.org/2000/svg" xmlns:xlink="http://www.w3.org/1999/xlink" viewBox="0,0,256,256" width="50px" height="50px"><g fill="#ffffff" fill-rule="nonzero" stroke="none" stroke-width="1" stroke-linecap="butt" stroke-linejoin="miter" stroke-miterlimit="10" stroke-dasharray="" stroke-dashoffset="0" font-family="none" font-weight="none" font-size="none" text-anchor="none" style="mix-blend-mode: normal"><g transform="scale(5.12,5.12)"><path d="M5.13086,8.02734c-1.05682,-0.06435 -2.13086,0.74637 -2.13086,1.91406v5.60352v19.73047c0,2.62385 2.17359,4.75781 4.81055,4.75781h32.37891c2.63727,0 4.81055,-2.1347 4.81055,-4.75781v-25.28125c0,-1.57312 -1.94848,-2.48924 -3.17383,-1.51172l-5.82617,4.64258v-0.00391l-10.26758,8.18555l-0.01367,0.00781c-1.03598,0.81653 -2.50818,0.81134 -3.53711,-0.01562l-16.0293,-12.88867l-0.01172,-0.00781c-0.30825,-0.23488 -0.65749,-0.35355 -1.00977,-0.375zM5,10.05078l15.92773,12.80664c0.52853,0.42479 1.1302,0.70658 1.75586,0.87695l-1.66797,1.33008c-1.028,0.82 -2.51888,0.81714 -3.54687,-0.00586l-12.46875,-9.99414zM43,10.10352v25.17188c0,1.52689 -1.23982,2.75781 -2.81055,2.75781h-4.18945v-22.35156z"></path></g></g></svg>